<svg xmlns="http://www.w3.org/2000/svg" width="34.158" height="28.783" viewBox="0 0 34.158 28.783">
  <g id="shopping-cart" transform="translate(0 -40.283)">
    <path id="Path_2476" data-name="Path 2476" d="M33.651,49.942a2.36,2.36,0,0,0-1.857-.891H25.216l-3.567-8.168a1,1,0,1,0-1.834.8l3.217,7.367H11.126l3.217-7.367a1,1,0,1,0-1.834-.8L8.942,49.051H2.364a2.36,2.36,0,0,0-1.857.891A2.3,2.3,0,0,0,.059,51.9L3.572,67.246a2.345,2.345,0,0,0,2.3,1.82h22.4a2.345,2.345,0,0,0,2.3-1.82L34.1,51.9a2.3,2.3,0,0,0-.448-1.96Zm-5.37,17.123H5.877a.358.358,0,0,1-.354-.265L2.01,51.455a.306.306,0,0,1,.062-.266.363.363,0,0,1,.291-.136h5.7l-.262.6a1,1,0,1,0,1.834.8l.612-1.4H23.906l.612,1.4a1,1,0,0,0,1.834-.8l-.262-.6h5.7a.363.363,0,0,1,.291.136.306.306,0,0,1,.062.266L28.636,66.8a.358.358,0,0,1-.354.265Z" transform="translate(0 0)" fill="#0d3e3e"/>
    <path id="Path_2477" data-name="Path 2477" d="M152,266.717a1,1,0,0,0-1,1v7.339a1,1,0,0,0,2,0v-7.339A1,1,0,0,0,152,266.717Z" transform="translate(-140.926 -211.328)" fill="#0d3e3e"/>
    <path id="Path_2478" data-name="Path 2478" d="M242,266.717a1,1,0,0,0-1,1v7.339a1,1,0,0,0,2,0v-7.339A1,1,0,0,0,242,266.717Z" transform="translate(-224.922 -211.328)" fill="#0d3e3e"/>
    <path id="Path_2479" data-name="Path 2479" d="M332,266.717a1,1,0,0,0-1,1v7.339a1,1,0,0,0,2,0v-7.339A1,1,0,0,0,332,266.717Z" transform="translate(-308.917 -211.328)" fill="#0d3e3e"/>
  </g>
</svg>
